<svg xmlns="http://www.w3.org/2000/svg" viewBox="0 0 24 24"><path fill="currentColor" fill-rule="evenodd" d="M10.507 1.508a.75.75 0 0 1 .734-.239c3.608.829 5.433 4.783 5.003 8.321c-.166 1.376-.578 2.454-1.185 3.312l-.011.016c.138-.068.265-.141.384-.218c.592-.385 1.026-.892 1.592-1.552l.211-.246a.75.75 0 0 1 1.238.151A7.25 7.25 0 1 1 8.025 8.26l.067-.068a.75.75 0 0 1 .114-.094c.865-.583 1.487-1.06 1.906-1.62c.395-.529.638-1.175.638-2.154a5.73 5.73 0 0 0-.378-2.055a.75.75 0 0 1 .135-.76m1.664 1.743c.052.35.079.708.079 1.072c0 1.268-.328 2.237-.937 3.052c-.571.766-1.363 1.353-2.208 1.925l-.073.073a.75.75 0 0 1-.128.103a5.75 5.75 0 1 0 8.648 3.346c-.38.411-.8.809-1.303 1.136c-.924.599-2.08.941-3.749.941a.75.75 0 0 1-.362-1.407c.679-.374 1.254-.831 1.697-1.456c.44-.624.779-1.457.92-2.626c.307-2.531-.74-5.029-2.584-6.16" clip-rule="evenodd"/></svg>