<svg xmlns="http://www.w3.org/2000/svg" viewBox="0 0 24 24"><path fill="currentColor" fill-rule="evenodd" d="M7.75 7.5a4.25 4.25 0 1 1 8.5 0a4.25 4.25 0 0 1-8.5 0M12 4.75a2.75 2.75 0 1 0 0 5.5a2.75 2.75 0 0 0 0-5.5m-4 10A2.25 2.25 0 0 0 5.75 17v1.188c0 .018.013.034.031.037c4.119.672 8.32.672 12.438 0a.037.037 0 0 0 .031-.037V17A2.25 2.25 0 0 0 16 14.75h-.34a.253.253 0 0 0-.079.012l-.865.283a8.751 8.751 0 0 1-5.432 0l-.866-.283a.252.252 0 0 0-.077-.012zM4.25 17A3.75 3.75 0 0 1 8 13.25h.34c.185 0 .369.03.544.086l.866.283a7.251 7.251 0 0 0 4.5 0l.866-.283c.175-.057.359-.086.543-.086H16A3.75 3.75 0 0 1 19.75 17v1.188c0 .754-.546 1.396-1.29 1.517a40.095 40.095 0 0 1-12.92 0a1.537 1.537 0 0 1-1.29-1.517z" clip-rule="evenodd"/></svg>